<svg xmlns="http://www.w3.org/2000/svg" viewBox="0 0 120 120"><defs><style>.cls-1{fill:#1161d5;}.cls-2{fill:#fff;}</style></defs><title>Asset 2</title><g id="Layer_2" data-name="Layer 2"><g id="Layer_1-2" data-name="Layer 1"><rect class="cls-1" width="120" height="120" rx="16.01"/><path class="cls-2" d="M61.21,48.07A17.81,17.81,0,0,0,45.37,58.25,17.8,17.8,0,0,0,29.53,48.07,17.11,17.11,0,0,0,18.77,51.9V35.76A3.71,3.71,0,0,0,15.18,32a3.7,3.7,0,0,0-3.58,3.76V67.55h0C11.76,78,19.72,86.4,29.53,86.4A17.81,17.81,0,0,0,45.37,76.22,17.82,17.82,0,0,0,61.21,86.4c9.9,0,17.93-8.58,17.93-19.17s-8-19.16-17.93-19.16M29.65,78.8c-6,0-10.86-5.14-10.86-11.49s4.87-11.49,10.86-11.49S40.5,61,40.5,67.31,35.65,78.8,29.65,78.8m32,0c-6,0-10.86-5.14-10.86-11.49s4.86-11.49,10.86-11.49S72.48,61,72.48,67.31,67.62,78.8,61.63,78.8"/><path class="cls-2" d="M107.65,80.05,97.86,67.23l9.8-12.85a3.8,3.8,0,0,0-.82-5.32,4,4,0,0,0-5.45.7h0L93,60.8l-8.43-11h0a4,4,0,0,0-5.44-.7,3.8,3.8,0,0,0-.82,5.32h0l9.79,12.85L78.27,80.05h0a3.8,3.8,0,0,0,.82,5.32,4,4,0,0,0,5.44-.7l8.43-11,8.42,11a4,4,0,0,0,5.44.7,3.79,3.79,0,0,0,.83-5.32"/></g></g></svg>